<svg xmlns="http://www.w3.org/2000/svg" viewBox="0 0 128 128">
  <defs>
    <radialGradient id="a" cx="-.33" cy=".17" r="1.27">
      <stop offset="0%" stop-color="#20c6b7"/>
      <stop offset="100%" stop-color="#4d9abf"/>
    </radialGradient>
  </defs>
  <path fill="url(#a)" d="M75.4 51.4l-34.9 12.6-5.3-5.3c-.2-.2-.5-.3-.7-.3h-4.7l21 21 27.3-9.9-1.7-17.8c-.1-.2-.6-.3-1-.3zM56.8 26.8l-9.2 22.9L23 25.2c.3-.3.7-.5 1.2-.5h8.9c.3 0 .6.1.8.3l22.9 1.8zm45.5 28.8l3.9-17.7-22-22c-.2-.2-.5-.3-.7-.3H65.7L55.9 38.5l23.2-1.8c.5 0 1 .3 1.3.7l21.9 18.2zm-85.1 4.2l5.6 5.6 2.5-14.1-5.9-5.9c-.3-.3-.8-.2-1 .2l-1.5 6.9c-.4 1.9-.2 3.8.4 5.5-.1.5.4 1.2-.1 1.8zm-.5 10.9l12.4 12.4c.2.2.5.3.7.3h15.8l6.9-25.5-32.6 11.8-3.2 1c-.1.1 0 0 0 0zm41.9 32l20.9-7.6-7.1-7.1c-.2-.2-.5-.3-.7-.3H52.6l5.1 14.5c.3.3.7.5 1 .5zm47.9-33l-4.7-4.7-28.9 10.5-1.7 16.2c0 .5.2 1 .6 1.3l9.9 9.9 24.2-32.5c.3-.3.5-.5.6-.7zm7-3.2l-6.9-5.7-4.2 5.6 4.7 4.7c.2.2.5.3.7.3h6.2c.3-.2.1-3.3-.5-4.9zm-2.9-51.1L91.1 35.3l5.5 5.5c.3.3.3.8 0 1.2l-5.9 7.8 23.9 19.8.3.2 1.7-7.9c1.4-6.4-1.8-13-7.8-15.5l-1.2 5.6c.2-.6.3-1.2.3-1.8l-2.8-12.8c-.6-2.6-2.7-4.4-5.2-4.9l-5.2 12.8c-.3-.9-.9-1.7-1.8-2.1l.4-2c.1-.6-.3-1.1-.8-1.3L91.6 16.9c-.3-.3-.8-.4-1.2-.2l-4.8 2.3c-.5.2-.7.8-.5 1.3l1.9 4.1c-1-.6-2.2-.7-3.3-.3l-1.5 3.6c-.2.5 0 1.2.5 1.5l.1.1c1.7 1 2.4 3.1 1.4 4.8l22.3-18.7z"/>
</svg>
